<svg xmlns="http://www.w3.org/2000/svg" viewBox="0 0 500 300" fill="none">
  <g opacity="0.15">
    <pattern id="tu-grid" x="0" y="0" width="20" height="20" patternUnits="userSpaceOnUse">
      <circle cx="1" cy="1" r="0.3" fill="#E5ECE5"/>
    </pattern>
    <rect width="500" height="300" fill="url(#tu-grid)"/>
  </g>
  <g fill="none" stroke="#E5ECE5" stroke-width="0.5" opacity="0.2">
    <line x1="0" y1="75" x2="500" y2="75"/>
    <line x1="0" y1="150" x2="500" y2="150"/>
    <line x1="0" y1="225" x2="500" y2="225"/>
    <line x1="125" y1="0" x2="125" y2="300"/>
    <line x1="250" y1="0" x2="250" y2="300"/>
    <line x1="375" y1="0" x2="375" y2="300"/>
  </g>
  <g opacity="0.4">
    <circle cx="250" cy="150" r="36" stroke="#E5ECE5" stroke-width="0.5" fill="white" fill-opacity="0.5"/>
    <circle cx="250" cy="150" r="22" stroke="#14532D" stroke-width="0.75" fill="#F5F8F5" fill-opacity="0.4"/>
    <circle cx="250" cy="150" r="10" stroke="#14532D" stroke-width="0.5" fill="#F5F8F5" fill-opacity="0.3"/>
    <circle cx="250" cy="150" r="4" fill="#14532D"/>
  </g>
  <g opacity="0.3">
    <circle cx="90" cy="80" r="16" stroke="#E5ECE5" stroke-width="0.5" fill="white" fill-opacity="0.5"/>
    <circle cx="90" cy="80" r="7" stroke="#14532D" stroke-width="0.5" fill="#F5F8F5" fill-opacity="0.4"/>
    <circle cx="90" cy="80" r="2" fill="#14532D"/>
  </g>
  <g opacity="0.3">
    <circle cx="90" cy="220" r="16" stroke="#E5ECE5" stroke-width="0.5" fill="white" fill-opacity="0.5"/>
    <circle cx="90" cy="220" r="7" stroke="#14532D" stroke-width="0.5" fill="#F5F8F5" fill-opacity="0.4"/>
    <circle cx="90" cy="220" r="2" fill="#14532D"/>
  </g>
  <g opacity="0.3">
    <circle cx="410" cy="100" r="16" stroke="#E5ECE5" stroke-width="0.5" fill="white" fill-opacity="0.5"/>
    <circle cx="410" cy="100" r="7" stroke="#14532D" stroke-width="0.5" fill="#F5F8F5" fill-opacity="0.4"/>
    <circle cx="410" cy="100" r="2" fill="#14532D"/>
  </g>
  <g opacity="0.3">
    <circle cx="410" cy="200" r="16" stroke="#E5ECE5" stroke-width="0.5" fill="white" fill-opacity="0.5"/>
    <circle cx="410" cy="200" r="7" stroke="#14532D" stroke-width="0.5" fill="#F5F8F5" fill-opacity="0.4"/>
    <circle cx="410" cy="200" r="2" fill="#14532D"/>
  </g>
  <g fill="none" stroke="#14532D" stroke-width="0.5" opacity="0.2">
    <path d="M250 150 L90 80"/>
    <path d="M250 150 L90 220"/>
    <path d="M250 150 L410 100"/>
    <path d="M250 150 L410 200"/>
    <path d="M90 80 L90 220"/>
    <path d="M410 100 L410 200"/>
  </g>
  <g fill="none" stroke="#22C55E" stroke-width="0.5" opacity="0.12">
    <path d="M90 80 L410 100"/>
    <path d="M90 220 L410 200"/>
  </g>
  <g opacity="0.15">
    <path d="M230 130 L250 110 L270 130" stroke="#14532D" stroke-width="0.75" fill="none"/>
    <path d="M230 170 L250 190 L270 170" stroke="#14532D" stroke-width="0.75" fill="none"/>
  </g>
</svg>