<svg xmlns="http://www.w3.org/2000/svg" viewBox="0 0 640 240" fill="none">
  <g opacity="0.15">
    <pattern id="cm-grid" x="0" y="0" width="24" height="24" patternUnits="userSpaceOnUse">
      <circle cx="1" cy="1" r="0.3" fill="#E5ECE5"/>
    </pattern>
    <rect width="640" height="240" fill="url(#cm-grid)"/>
  </g>
  <g fill="none" stroke="#E5ECE5" stroke-width="0.5" opacity="0.3">
    <line x1="0" y1="60" x2="640" y2="60"/>
    <line x1="0" y1="120" x2="640" y2="120"/>
    <line x1="0" y1="180" x2="640" y2="180"/>
    <line x1="160" y1="0" x2="160" y2="240"/>
    <line x1="320" y1="0" x2="320" y2="240"/>
    <line x1="480" y1="0" x2="480" y2="240"/>
  </g>
  <g opacity="0.2">
    <rect x="40" y="40" width="120" height="40" rx="4" stroke="#E5ECE5" stroke-width="0.5" fill="white" fill-opacity="0.5"/>
    <rect x="180" y="40" width="120" height="40" rx="4" stroke="#E5ECE5" stroke-width="0.5" fill="white" fill-opacity="0.5"/>
    <rect x="320" y="40" width="120" height="40" rx="4" stroke="#E5ECE5" stroke-width="0.5" fill="white" fill-opacity="0.5"/>
    <rect x="460" y="40" width="140" height="40" rx="4" stroke="#E5ECE5" stroke-width="0.5" fill="white" fill-opacity="0.5"/>
  </g>
  <g opacity="0.15">
    <rect x="40" y="100" width="120" height="40" rx="4" stroke="#E5ECE5" stroke-width="0.5" fill="white" fill-opacity="0.4"/>
    <rect x="180" y="100" width="120" height="40" rx="4" stroke="#E5ECE5" stroke-width="0.5" fill="white" fill-opacity="0.4"/>
    <rect x="320" y="100" width="120" height="40" rx="4" stroke="#E5ECE5" stroke-width="0.5" fill="white" fill-opacity="0.4"/>
    <rect x="460" y="100" width="140" height="40" rx="4" stroke="#E5ECE5" stroke-width="0.5" fill="white" fill-opacity="0.4"/>
  </g>
  <g opacity="0.12">
    <rect x="40" y="160" width="120" height="40" rx="4" stroke="#E5ECE5" stroke-width="0.5" fill="white" fill-opacity="0.3"/>
    <rect x="180" y="160" width="120" height="40" rx="4" stroke="#E5ECE5" stroke-width="0.5" fill="white" fill-opacity="0.3"/>
    <rect x="320" y="160" width="120" height="40" rx="4" stroke="#E5ECE5" stroke-width="0.5" fill="white" fill-opacity="0.3"/>
    <rect x="460" y="160" width="140" height="40" rx="4" stroke="#E5ECE5" stroke-width="0.5" fill="white" fill-opacity="0.3"/>
  </g>
  <g opacity="0.2">
    <circle cx="100" cy="60" r="3" fill="#14532D"/>
    <circle cx="240" cy="60" r="3" fill="#14532D"/>
    <circle cx="380" cy="60" r="3" fill="#14532D"/>
    <circle cx="530" cy="60" r="3" fill="#14532D"/>
  </g>
  <g opacity="0.12">
    <circle cx="100" cy="120" r="3" fill="#22C55E"/>
    <circle cx="240" cy="120" r="3" fill="#22C55E"/>
    <circle cx="380" cy="120" r="3" fill="#22C55E"/>
    <circle cx="530" cy="120" r="3" fill="#22C55E"/>
  </g>
  <g opacity="0.1">
    <circle cx="100" cy="180" r="3" fill="#22C55E"/>
    <circle cx="380" cy="180" r="3" fill="#22C55E"/>
  </g>
  <g fill="none" stroke="#14532D" stroke-width="0.3" opacity="0.1" stroke-dasharray="2 4">
    <line x1="100" y1="80" x2="100" y2="100"/>
    <line x1="240" y1="80" x2="240" y2="100"/>
    <line x1="380" y1="80" x2="380" y2="100"/>
    <line x1="530" y1="80" x2="530" y2="100"/>
    <line x1="100" y1="140" x2="100" y2="160"/>
    <line x1="380" y1="140" x2="380" y2="160"/>
  </g>
</svg>