<svg xmlns="http://www.w3.org/2000/svg" viewBox="0 0 820 500" fill="none">
  <g opacity="0.12">
    <pattern id="dm-grid" x="0" y="0" width="16" height="16" patternUnits="userSpaceOnUse">
      <circle cx="1" cy="1" r="0.3" fill="#14532D"/>
    </pattern>
    <rect width="820" height="500" fill="url(#dm-grid)"/>
  </g>
  <g opacity="0.08">
    <pattern id="dm-lg" x="0" y="0" width="80" height="80" patternUnits="userSpaceOnUse">
      <line x1="0" y1="0" x2="80" y2="80" stroke="#14532D" stroke-width="0.5"/>
      <line x1="80" y1="0" x2="0" y2="80" stroke="#14532D" stroke-width="0.5"/>
    </pattern>
    <rect width="820" height="500" fill="url(#dm-lg)"/>
  </g>
  <g fill="none" stroke="#E5ECE5" stroke-width="0.5" opacity="0.3">
    <line x1="0" y1="100" x2="820" y2="100"/>
    <line x1="0" y1="200" x2="820" y2="200"/>
    <line x1="0" y1="300" x2="820" y2="300"/>
    <line x1="0" y1="400" x2="820" y2="400"/>
    <line x1="200" y1="0" x2="200" y2="500"/>
    <line x1="400" y1="0" x2="400" y2="500"/>
    <line x1="600" y1="0" x2="600" y2="500"/>
  </g>
  <g fill="none" stroke-width="0.75">
    <path d="M0 50 Q205 0, 410 50 Q615 100, 820 50" stroke="#14532D" opacity="0.1"/>
    <path d="M0 150 Q205 100, 410 150 Q615 200, 820 150" stroke="#14532D" opacity="0.08"/>
    <path d="M0 350 Q205 300, 410 350 Q615 400, 820 350" stroke="#14532D" opacity="0.08"/>
    <path d="M0 450 Q205 400, 410 450 Q615 500, 820 450" stroke="#14532D" opacity="0.06"/>
  </g>
  <g opacity="0.2">
    <rect x="40" y="80" width="180" height="80" rx="4" stroke="#E5ECE5" stroke-width="0.5" fill="white" fill-opacity="0.4"/>
    <rect x="240" y="80" width="180" height="80" rx="4" stroke="#E5ECE5" stroke-width="0.5" fill="white" fill-opacity="0.4"/>
    <rect x="440" y="80" width="180" height="80" rx="4" stroke="#E5ECE5" stroke-width="0.5" fill="white" fill-opacity="0.4"/>
    <rect x="640" y="80" width="140" height="80" rx="4" stroke="#E5ECE5" stroke-width="0.5" fill="white" fill-opacity="0.4"/>
  </g>
  <g opacity="0.15">
    <rect x="40" y="200" width="740" height="36" rx="4" stroke="#E5ECE5" stroke-width="0.5" fill="white" fill-opacity="0.3"/>
  </g>
  <g opacity="0.12">
    <rect x="40" y="250" width="740" height="32" rx="2" stroke="#E5ECE5" stroke-width="0.5" fill="white" fill-opacity="0.2"/>
    <rect x="40" y="292" width="740" height="32" rx="2" stroke="#E5ECE5" stroke-width="0.5" fill="white" fill-opacity="0.2"/>
    <rect x="40" y="334" width="740" height="32" rx="2" stroke="#E5ECE5" stroke-width="0.5" fill="white" fill-opacity="0.2"/>
  </g>
  <g fill="none" stroke="#14532D" stroke-width="0.3" opacity="0.1">
    <rect x="60" y="260" width="60" height="12" rx="2"/>
    <rect x="140" y="260" width="120" height="12" rx="2"/>
    <rect x="700" y="260" width="60" height="12" rx="2"/>
  </g>
  <g fill="none" stroke="#22C55E" stroke-width="0.5" opacity="0.1">
    <rect x="60" y="302" width="60" height="12" rx="2"/>
    <rect x="140" y="302" width="120" height="12" rx="2"/>
    <rect x="700" y="302" width="60" height="12" rx="2"/>
  </g>
  <g opacity="0.08">
    <circle cx="410" cy="420" r="40" stroke="#E5ECE5" stroke-width="0.5" fill="white" fill-opacity="0.3"/>
    <circle cx="410" cy="420" r="20" stroke="#14532D" stroke-width="0.5" fill="#F5F8F5" fill-opacity="0.2"/>
  </g>
</svg>