<svg xmlns="http://www.w3.org/2000/svg" viewBox="0 0 640 320" fill="none">
  <g opacity="0.2">
    <pattern id="sol-grid" x="0" y="0" width="24" height="24" patternUnits="userSpaceOnUse">
      <circle cx="1" cy="1" r="0.4" fill="#E5ECE5"/>
    </pattern>
    <rect width="640" height="320" fill="url(#sol-grid)"/>
  </g>
  <g opacity="0.12">
    <pattern id="sol-lg" x="0" y="0" width="120" height="120" patternUnits="userSpaceOnUse">
      <line x1="0" y1="0" x2="120" y2="120" stroke="#14532D" stroke-width="0.3"/>
      <line x1="120" y1="0" x2="0" y2="120" stroke="#14532D" stroke-width="0.3"/>
    </pattern>
    <rect width="640" height="320" fill="url(#sol-lg)"/>
  </g>
  <g opacity="0.5">
    <circle cx="320" cy="160" r="80" stroke="#E5ECE5" stroke-width="0.5" fill="white" fill-opacity="0.4"/>
    <circle cx="320" cy="160" r="55" stroke="#14532D" stroke-width="0.75" fill="#F5F8F5" fill-opacity="0.4"/>
    <circle cx="320" cy="160" r="30" stroke="#14532D" stroke-width="0.75" fill="#F5F8F5" fill-opacity="0.3"/>
    <circle cx="320" cy="160" r="12" fill="#14532D" fill-opacity="0.15"/>
    <circle cx="320" cy="160" r="5" fill="#14532D"/>
  </g>
  <g opacity="0.45">
    <circle cx="100" cy="100" r="24" stroke="#E5ECE5" stroke-width="0.5" fill="white" fill-opacity="0.5"/>
    <circle cx="100" cy="100" r="12" stroke="#14532D" stroke-width="0.75" fill="#F5F8F5" fill-opacity="0.4"/>
    <circle cx="100" cy="100" r="4" fill="#14532D" fill-opacity="0.5"/>
  </g>
  <g opacity="0.45">
    <circle cx="540" cy="100" r="24" stroke="#E5ECE5" stroke-width="0.5" fill="white" fill-opacity="0.5"/>
    <circle cx="540" cy="100" r="12" stroke="#14532D" stroke-width="0.75" fill="#F5F8F5" fill-opacity="0.4"/>
    <circle cx="540" cy="100" r="4" fill="#14532D" fill-opacity="0.5"/>
  </g>
  <g opacity="0.35">
    <circle cx="180" cy="240" r="20" stroke="#E5ECE5" stroke-width="0.5" fill="white" fill-opacity="0.5"/>
    <circle cx="180" cy="240" r="10" stroke="#14532D" stroke-width="0.75" fill="#F5F8F5" fill-opacity="0.4"/>
    <circle cx="180" cy="240" r="3" fill="#14532D" fill-opacity="0.5"/>
  </g>
  <g opacity="0.35">
    <circle cx="460" cy="240" r="20" stroke="#E5ECE5" stroke-width="0.5" fill="white" fill-opacity="0.5"/>
    <circle cx="460" cy="240" r="10" stroke="#14532D" stroke-width="0.75" fill="#F5F8F5" fill-opacity="0.4"/>
    <circle cx="460" cy="240" r="3" fill="#14532D" fill-opacity="0.5"/>
  </g>
  <g opacity="0.3">
    <circle cx="320" cy="60" r="16" stroke="#E5ECE5" stroke-width="0.5" fill="white" fill-opacity="0.4"/>
    <circle cx="320" cy="60" r="8" stroke="#14532D" stroke-width="0.5" fill="#F5F8F5" fill-opacity="0.4"/>
    <circle cx="320" cy="60" r="2" fill="#14532D" fill-opacity="0.5"/>
  </g>
  <g fill="none" stroke="#14532D" stroke-width="0.75" opacity="0.3">
    <path d="M320 160 L100 100"/>
    <path d="M320 160 L540 100"/>
    <path d="M320 160 L180 240"/>
    <path d="M320 160 L460 240"/>
    <path d="M320 160 L320 60"/>
    <path d="M100 100 L180 240"/>
    <path d="M540 100 L460 240"/>
    <path d="M100 100 L540 100"/>
    <path d="M180 240 L460 240"/>
  </g>
  <g fill="none" stroke="#22C55E" stroke-width="0.75" opacity="0.2">
    <path d="M320 160 C280 120, 240 140, 200 130"/>
    <path d="M320 160 C360 120, 400 140, 440 130"/>
    <path d="M320 160 C300 200, 260 190, 230 210"/>
  </g>
  <g opacity="0.25">
    <rect x="280" y="248" width="80" height="24" rx="4" stroke="#14532D" stroke-width="0.5" fill="white" fill-opacity="0.5"/>
    <text x="320" y="264" text-anchor="middle" fill="#14532D" font-family="system-ui" font-size="9" font-weight="600" letter-spacing="0.05em">VERIFIED NETWORK</text>
  </g>
</svg>