<svg xmlns="http://www.w3.org/2000/svg" viewBox="0 0 640 260" fill="none">
  <g opacity="0.2">
    <pattern id="mesh-grid" x="0" y="0" width="48" height="48" patternUnits="userSpaceOnUse">
      <path d="M24 0 L48 24 L24 48 L0 24 Z" stroke="#E5ECE5" stroke-width="0.3" fill="none"/>
    </pattern>
    <rect width="640" height="260" fill="url(#mesh-grid)"/>
  </g>
  <g fill="none" stroke-width="0.5">
    <path d="M60 130 L320 130 L580 130" stroke="#14532D" opacity="0.15"/>
    <path d="M320 40 L320 130 L320 220" stroke="#14532D" opacity="0.12"/>
  </g>
  <g fill="none" stroke="#E5ECE5" stroke-width="0.5" opacity="0.25">
    <line x1="60" y1="40" x2="580" y2="220"/>
    <line x1="580" y1="40" x2="60" y2="220"/>
  </g>
  <g opacity="0.5">
    <circle cx="320" cy="130" r="48" stroke="#E5ECE5" stroke-width="0.5" fill="white" fill-opacity="0.5"/>
    <circle cx="320" cy="130" r="30" stroke="#14532D" stroke-width="0.75" fill="#F5F8F5" fill-opacity="0.4"/>
    <circle cx="320" cy="130" r="14" stroke="#14532D" stroke-width="0.5" fill="#F5F8F5" fill-opacity="0.3"/>
    <circle cx="320" cy="130" r="5" fill="#14532D"/>
  </g>
  <g opacity="0.35">
    <circle cx="120" cy="80" r="18" stroke="#E5ECE5" stroke-width="0.5" fill="white" fill-opacity="0.5"/>
    <circle cx="120" cy="80" r="8" stroke="#14532D" stroke-width="0.5" fill="#F5F8F5" fill-opacity="0.4"/>
    <circle cx="120" cy="80" r="2" fill="#14532D" fill-opacity="0.5"/>
  </g>
  <g opacity="0.35">
    <circle cx="520" cy="80" r="18" stroke="#E5ECE5" stroke-width="0.5" fill="white" fill-opacity="0.5"/>
    <circle cx="520" cy="80" r="8" stroke="#14532D" stroke-width="0.5" fill="#F5F8F5" fill-opacity="0.4"/>
    <circle cx="520" cy="80" r="2" fill="#14532D" fill-opacity="0.5"/>
  </g>
  <g opacity="0.35">
    <circle cx="120" cy="180" r="18" stroke="#E5ECE5" stroke-width="0.5" fill="white" fill-opacity="0.5"/>
    <circle cx="120" cy="180" r="8" stroke="#14532D" stroke-width="0.5" fill="#F5F8F5" fill-opacity="0.4"/>
    <circle cx="120" cy="180" r="2" fill="#14532D" fill-opacity="0.5"/>
  </g>
  <g opacity="0.35">
    <circle cx="520" cy="180" r="18" stroke="#E5ECE5" stroke-width="0.5" fill="white" fill-opacity="0.5"/>
    <circle cx="520" cy="180" r="8" stroke="#14532D" stroke-width="0.5" fill="#F5F8F5" fill-opacity="0.4"/>
    <circle cx="520" cy="180" r="2" fill="#14532D" fill-opacity="0.5"/>
  </g>
  <g fill="none" stroke="#14532D" stroke-width="0.75" opacity="0.25">
    <path d="M320 130 L120 80"/>
    <path d="M320 130 L520 80"/>
    <path d="M320 130 L120 180"/>
    <path d="M320 130 L520 180"/>
    <path d="M120 80 L520 80"/>
    <path d="M120 180 L520 180"/>
    <path d="M120 80 L120 180"/>
    <path d="M520 80 L520 180"/>
  </g>
  <g fill="none" stroke="#22C55E" stroke-width="0.5" opacity="0.15">
    <path d="M320 130 C260 170, 200 140, 160 160"/>
    <path d="M320 130 C380 90, 440 120, 480 100"/>
  </g>
</svg>