<svg xmlns="http://www.w3.org/2000/svg" viewBox="0 0 640 160" fill="none">
  <g opacity="0.2">
    <pattern id="pipe-grid" x="0" y="0" width="20" height="20" patternUnits="userSpaceOnUse">
      <circle cx="1" cy="1" r="0.3" fill="#E5ECE5"/>
    </pattern>
    <rect width="640" height="160" fill="url(#pipe-grid)"/>
  </g>
  <g fill="none" stroke="#14532D" stroke-width="0.5" opacity="0.15">
    <line x1="0" y1="80" x2="640" y2="80"/>
    <line x1="0" y1="40" x2="640" y2="40"/>
    <line x1="0" y1="120" x2="640" y2="120"/>
  </g>
  <g fill="none" stroke-width="1">
    <path d="M60 80 L180 80" stroke="#14532D" opacity="0.4"/>
    <path d="M220 80 L340 80" stroke="#14532D" opacity="0.4"/>
    <path d="M380 80 L500 80" stroke="#14532D" opacity="0.4"/>
  </g>
  <g opacity="0.5">
    <rect x="60" y="56" width="48" height="48" rx="24" stroke="#E5ECE5" stroke-width="0.5" fill="white" fill-opacity="0.6"/>
    <circle cx="84" cy="80" r="8" fill="#14532D" fill-opacity="0.3"/>
    <circle cx="84" cy="80" r="3" fill="#14532D"/>
  </g>
  <g opacity="0.5">
    <rect x="220" y="56" width="48" height="48" rx="24" stroke="#E5ECE5" stroke-width="0.5" fill="white" fill-opacity="0.6"/>
    <circle cx="244" cy="80" r="8" fill="#14532D" fill-opacity="0.3"/>
    <circle cx="244" cy="80" r="3" fill="#14532D"/>
  </g>
  <g opacity="0.5">
    <rect x="380" y="56" width="48" height="48" rx="24" stroke="#E5ECE5" stroke-width="0.5" fill="white" fill-opacity="0.6"/>
    <circle cx="404" cy="80" r="8" fill="#14532D" fill-opacity="0.3"/>
    <circle cx="404" cy="80" r="3" fill="#14532D"/>
  </g>
  <g fill="none" stroke="#22C55E" stroke-width="0.75" opacity="0.3" stroke-dasharray="4 6">
    <path d="M168 80 L220 80"/>
    <path d="M328 80 L380 80"/>
  </g>
  <g fill="none" stroke="#22C55E" stroke-width="0.5" opacity="0.12">
    <path d="M84 104 L84 130"/>
    <path d="M244 104 L244 130"/>
    <path d="M404 104 L404 130"/>
  </g>
  <g opacity="0.2">
    <line x1="84" y1="40" x2="84" y2="20" stroke="#14532D" stroke-width="0.5"/>
    <line x1="244" y1="40" x2="244" y2="20" stroke="#14532D" stroke-width="0.5"/>
    <line x1="404" y1="40" x2="404" y2="20" stroke="#14532D" stroke-width="0.5"/>
  </g>
  <g opacity="0.15">
    <circle cx="84" cy="16" r="4" stroke="#E5ECE5" stroke-width="0.5" fill="white" fill-opacity="0.3"/>
    <circle cx="244" cy="16" r="4" stroke="#E5ECE5" stroke-width="0.5" fill="white" fill-opacity="0.3"/>
    <circle cx="404" cy="16" r="4" stroke="#E5ECE5" stroke-width="0.5" fill="white" fill-opacity="0.3"/>
  </g>
  <g fill="none" stroke="#E5ECE5" stroke-width="0.5" opacity="0.15">
    <path d="M84 16 L244 16"/>
    <path d="M244 16 L404 16"/>
  </g>
</svg>