<svg xmlns="http://www.w3.org/2000/svg" viewBox="0 0 760 400" fill="none">
  <g opacity="0.3">
    <pattern id="hex-grid" x="0" y="0" width="32" height="56" patternUnits="userSpaceOnUse">
      <path d="M16 0 L32 8 L32 24 L16 32 L0 24 L0 8 Z" stroke="#E5ECE5" stroke-width="0.5" fill="none"/>
      <path d="M16 28 L32 36 L32 52 L16 60 L0 52 L0 36 Z" stroke="#E5ECE5" stroke-width="0.5" fill="none"/>
    </pattern>
    <rect width="760" height="400" fill="url(#hex-grid)"/>
  </g>
  <g stroke="#14532D" stroke-width="0.5" fill="none" opacity="0.15">
    <rect x="40" y="40" width="680" height="320" rx="12"/>
    <rect x="60" y="60" width="640" height="280" rx="8"/>
  </g>
  <g fill="none" stroke-width="0.75">
    <path d="M120 200 C200 160, 300 140, 380 200 C460 260, 560 240, 640 200" stroke="#14532D" opacity="0.15"/>
    <path d="M140 260 C220 220, 320 280, 400 240 C480 200, 560 260, 640 220" stroke="#14532D" opacity="0.12"/>
  </g>
  <g opacity="0.5">
    <rect x="100" y="164" width="120" height="40" rx="6" stroke="#E5ECE5" stroke-width="0.5" fill="white" fill-opacity="0.6"/>
    <text x="160" y="188" text-anchor="middle" fill="#14532D" font-family="system-ui" font-size="10" font-weight="600" opacity="0.5">IDENTITY</text>
  </g>
  <g opacity="0.5">
    <rect x="320" y="180" width="120" height="40" rx="6" stroke="#E5ECE5" stroke-width="0.5" fill="white" fill-opacity="0.6"/>
    <text x="380" y="204" text-anchor="middle" fill="#14532D" font-family="system-ui" font-size="10" font-weight="600" opacity="0.5">VERIFY</text>
  </g>
  <g opacity="0.5">
    <rect x="540" y="164" width="120" height="40" rx="6" stroke="#E5ECE5" stroke-width="0.5" fill="white" fill-opacity="0.6"/>
    <text x="600" y="188" text-anchor="middle" fill="#14532D" font-family="system-ui" font-size="10" font-weight="600" opacity="0.5">ATTEST</text>
  </g>
  <g fill="none" stroke="#E5ECE5" stroke-width="0.75" opacity="0.5">
    <path d="M220 184 L320 200"/>
    <path d="M440 200 L540 184"/>
  </g>
  <g fill="none" stroke="#22C55E" stroke-width="0.5" opacity="0.2">
    <path d="M160 140 C160 100, 220 80, 280 100"/>
    <path d="M600 140 C600 100, 540 80, 480 100"/>
  </g>
  <circle cx="160" cy="184" r="3" fill="#14532D" opacity="0.4"/>
  <circle cx="380" cy="200" r="3" fill="#14532D" opacity="0.4"/>
  <circle cx="600" cy="184" r="3" fill="#14532D" opacity="0.4"/>
  <g opacity="0.2">
    <circle cx="160" cy="250" r="20" stroke="#E5ECE5" stroke-width="0.5" fill="white" fill-opacity="0.5"/>
    <circle cx="160" cy="250" r="6" fill="#14532D"/>
  </g>
  <g opacity="0.2">
    <circle cx="380" cy="270" r="20" stroke="#E5ECE5" stroke-width="0.5" fill="white" fill-opacity="0.5"/>
    <circle cx="380" cy="270" r="6" fill="#14532D"/>
  </g>
  <g opacity="0.2">
    <circle cx="600" cy="250" r="20" stroke="#E5ECE5" stroke-width="0.5" fill="white" fill-opacity="0.5"/>
    <circle cx="600" cy="250" r="6" fill="#14532D"/>
  </g>
  <g fill="none" stroke="#E5ECE5" stroke-width="0.5" opacity="0.2" stroke-dasharray="2 4">
    <path d="M160 250 L160 204"/>
    <path d="M380 270 L380 220"/>
    <path d="M600 250 L600 204"/>
  </g>
  <g fill="none" stroke="#14532D" stroke-width="0.5" opacity="0.15">
    <path d="M160 250 L380 270"/>
    <path d="M380 270 L600 250"/>
  </g>
</svg>