<svg xmlns="http://www.w3.org/2000/svg" viewBox="0 0 760 500" fill="none">
  <g opacity="0.4">
    <pattern id="dot-grid" x="0" y="0" width="24" height="24" patternUnits="userSpaceOnUse">
      <circle cx="1" cy="1" r="0.5" fill="#E5ECE5"/>
    </pattern>
    <rect width="760" height="500" fill="url(#dot-grid)"/>
  </g>
  <g opacity="0.15">
    <pattern id="dot-lg" x="0" y="0" width="96" height="96" patternUnits="userSpaceOnUse">
      <circle cx="1" cy="1" r="1" fill="#14532D"/>
    </pattern>
    <rect width="760" height="500" fill="url(#dot-lg)"/>
  </g>
  <g stroke="#E5ECE5" stroke-width="0.5" fill="none">
    <line x1="0" y1="100" x2="760" y2="100"/>
    <line x1="0" y1="200" x2="760" y2="200"/>
    <line x1="0" y1="300" x2="760" y2="300"/>
    <line x1="0" y1="400" x2="760" y2="400"/>
    <line x1="190" y1="0" x2="190" y2="500"/>
    <line x1="380" y1="0" x2="380" y2="500"/>
    <line x1="570" y1="0" x2="570" y2="500"/>
  </g>
  <g fill="none" stroke-width="0.75">
    <path d="M120 200 C200 160, 300 140, 380 180 C460 220, 560 200, 640 160" stroke="#14532D" opacity="0.2"/>
    <path d="M100 280 C200 320, 300 240, 380 260 C460 280, 560 300, 660 240" stroke="#14532D" opacity="0.15"/>
    <path d="M140 350 C220 300, 340 340, 420 320 C500 300, 580 360, 680 310" stroke="#14532D" opacity="0.18"/>
    <path d="M160 160 C240 200, 280 280, 340 340" stroke="#14532D" opacity="0.12" stroke-dasharray="4 6"/>
    <path d="M200 380 C280 340, 360 300, 460 280" stroke="#14532D" opacity="0.12" stroke-dasharray="4 6"/>
    <path d="M480 180 C540 220, 580 280, 620 350" stroke="#14532D" opacity="0.12" stroke-dasharray="4 6"/>
  </g>
  <g fill="none" stroke-width="0.5">
    <path d="M40 120 Q190 40, 380 60 Q570 80, 720 160" stroke="#22C55E" opacity="0.15"/>
    <path d="M20 320 Q200 200, 380 240 Q560 280, 740 380" stroke="#22C55E" opacity="0.12"/>
    <path d="M80 440 Q240 360, 420 380 Q600 400, 700 460" stroke="#22C55E" opacity="0.1"/>
  </g>
  <g opacity="0.6">
    <circle cx="380" cy="180" r="64" stroke="#E5ECE5" stroke-width="0.5" fill="white" fill-opacity="0.5"/>
    <circle cx="380" cy="180" r="44" stroke="#14532D" stroke-width="0.75" fill="#F5F8F5" fill-opacity="0.6"/>
    <circle cx="380" cy="180" r="20" fill="#14532D" fill-opacity="0.15"/>
    <circle cx="380" cy="180" r="6" fill="#14532D"/>
  </g>
  <g opacity="0.5">
    <circle cx="160" cy="240" r="28" stroke="#E5ECE5" stroke-width="0.5" fill="white" fill-opacity="0.5"/>
    <circle cx="160" cy="240" r="16" stroke="#14532D" stroke-width="0.75" fill="#F5F8F5" fill-opacity="0.5"/>
    <circle cx="160" cy="240" r="4" fill="#14532D" fill-opacity="0.5"/>
  </g>
  <g opacity="0.5">
    <circle cx="580" cy="220" r="28" stroke="#E5ECE5" stroke-width="0.5" fill="white" fill-opacity="0.5"/>
    <circle cx="580" cy="220" r="16" stroke="#14532D" stroke-width="0.75" fill="#F5F8F5" fill-opacity="0.5"/>
    <circle cx="580" cy="220" r="4" fill="#14532D" fill-opacity="0.5"/>
  </g>
  <g opacity="0.35">
    <circle cx="260" cy="320" r="24" stroke="#E5ECE5" stroke-width="0.5" fill="white" fill-opacity="0.5"/>
    <circle cx="260" cy="320" r="12" stroke="#14532D" stroke-width="0.75" fill="#F5F8F5" fill-opacity="0.5"/>
    <circle cx="260" cy="320" r="3" fill="#14532D" fill-opacity="0.5"/>
  </g>
  <g opacity="0.35">
    <circle cx="500" cy="300" r="24" stroke="#E5ECE5" stroke-width="0.5" fill="white" fill-opacity="0.5"/>
    <circle cx="500" cy="300" r="12" stroke="#14532D" stroke-width="0.75" fill="#F5F8F5" fill-opacity="0.5"/>
    <circle cx="500" cy="300" r="3" fill="#14532D" fill-opacity="0.5"/>
  </g>
  <g opacity="0.3">
    <circle cx="100" cy="150" r="16" stroke="#E5ECE5" stroke-width="0.5" fill="white" fill-opacity="0.4"/>
    <circle cx="100" cy="150" r="8" stroke="#14532D" stroke-width="0.5" fill="#F5F8F5" fill-opacity="0.4"/>
  </g>
  <g opacity="0.3">
    <circle cx="660" cy="150" r="16" stroke="#E5ECE5" stroke-width="0.5" fill="white" fill-opacity="0.4"/>
    <circle cx="660" cy="150" r="8" stroke="#14532D" stroke-width="0.5" fill="#F5F8F5" fill-opacity="0.4"/>
  </g>
  <g opacity="0.25">
    <circle cx="320" cy="100" r="14" stroke="#E5ECE5" stroke-width="0.5" fill="white" fill-opacity="0.4"/>
    <circle cx="320" cy="100" r="6" stroke="#14532D" stroke-width="0.5" fill="#F5F8F5" fill-opacity="0.4"/>
  </g>
  <g opacity="0.25">
    <circle cx="460" cy="400" r="14" stroke="#E5ECE5" stroke-width="0.5" fill="white" fill-opacity="0.4"/>
    <circle cx="460" cy="400" r="6" stroke="#14532D" stroke-width="0.5" fill="#F5F8F5" fill-opacity="0.4"/>
  </g>
  <g fill="none" stroke="#14532D" stroke-width="0.5" opacity="0.2">
    <path d="M380 180 L160 240"/>
    <path d="M380 180 L580 220"/>
    <path d="M380 180 L260 320"/>
    <path d="M380 180 L500 300"/>
    <path d="M380 180 L100 150"/>
    <path d="M380 180 L660 150"/>
    <path d="M160 240 L260 320"/>
    <path d="M580 220 L500 300"/>
    <path d="M160 240 L100 150"/>
    <path d="M580 220 L660 150"/>
    <path d="M260 320 L460 400"/>
    <path d="M500 300 L460 400"/>
    <path d="M320 100 L380 180"/>
    <path d="M320 100 L100 150"/>
    <path d="M320 100 L660 150"/>
  </g>
  <g fill="none" stroke="#22C55E" stroke-width="0.75" opacity="0.25" stroke-dasharray="4 8">
    <path d="M380 180 C420 140, 480 160, 520 190"/>
    <path d="M380 180 C340 220, 300 200, 280 170"/>
  </g>
  <rect x="338" y="138" width="84" height="24" rx="4" stroke="#14532D" stroke-width="0.75" fill="white" fill-opacity="0.6" opacity="0.7"/>
  <text x="380" y="154" text-anchor="middle" fill="#14532D" font-family="system-ui" font-size="10" font-weight="600" letter-spacing="0.08em" opacity="0.7">TRUST ANCHOR</text>
</svg>