<svg xmlns="http://www.w3.org/2000/svg" viewBox="0 0 640 200" fill="none">
  <g opacity="0.2">
    <pattern id="bf-grid" x="0" y="0" width="40" height="40" patternUnits="userSpaceOnUse">
      <path d="M18 20 h4 M20 18 v4" stroke="#E5ECE5" stroke-width="0.4"/>
    </pattern>
    <rect width="640" height="200" fill="url(#bf-grid)"/>
  </g>
  <g fill="none" stroke-width="1">
    <path d="M60 100 L180 100" stroke="#14532D" opacity="0.25"/>
    <path d="M220 100 L260 100" stroke="#E5ECE5" opacity="0.4" stroke-dasharray="4 6"/>
    <path d="M300 100 L380 100" stroke="#14532D" opacity="0.25"/>
    <path d="M420 100 L460 100" stroke="#E5ECE5" opacity="0.4" stroke-dasharray="4 6"/>
    <path d="M500 100 L580 100" stroke="#14532D" opacity="0.25" stroke-dasharray="4 6"/>
  </g>
  <g opacity="0.35">
    <rect x="60" y="76" width="48" height="48" rx="4" stroke="#E5ECE5" stroke-width="0.5" fill="white" fill-opacity="0.5"/>
    <rect x="180" y="76" width="48" height="48" rx="4" stroke="#E5ECE5" stroke-width="0.5" fill="white" fill-opacity="0.5"/>
    <rect x="300" y="76" width="48" height="48" rx="4" stroke="#E5ECE5" stroke-width="0.5" fill="white" fill-opacity="0.5"/>
    <rect x="420" y="76" width="48" height="48" rx="4" stroke="#E5ECE5" stroke-width="0.5" fill="white" fill-opacity="0.5"/>
  </g>
  <g opacity="0.2">
    <line x1="84" y1="100" x2="84" y2="50" stroke="#14532D" stroke-width="0.5"/>
    <line x1="204" y1="100" x2="204" y2="50" stroke="#14532D" stroke-width="0.5"/>
    <line x1="324" y1="100" x2="324" y2="50" stroke="#14532D" stroke-width="0.5"/>
    <line x1="444" y1="100" x2="444" y2="50" stroke="#14532D" stroke-width="0.5"/>
  </g>
  <g opacity="0.15">
    <circle cx="84" cy="38" r="12" stroke="#E5ECE5" stroke-width="0.5" fill="white" fill-opacity="0.3"/>
    <circle cx="204" cy="38" r="12" stroke="#E5ECE5" stroke-width="0.5" fill="white" fill-opacity="0.3"/>
    <circle cx="324" cy="38" r="12" stroke="#E5ECE5" stroke-width="0.5" fill="white" fill-opacity="0.3"/>
    <circle cx="444" cy="38" r="12" stroke="#E5ECE5" stroke-width="0.5" fill="white" fill-opacity="0.3"/>
  </g>
  <g fill="none" stroke="#14532D" stroke-width="0.5" opacity="0.12">
    <path d="M84 38 L204 38"/>
    <path d="M324 38 L444 38"/>
  </g>
  <g fill="none" stroke="#E5ECE5" stroke-width="0.5" opacity="0.2" stroke-dasharray="3 6">
    <path d="M204 38 L324 38"/>
  </g>
  <g opacity="0.2">
    <line x1="84" y1="124" x2="84" y2="160" stroke="#14532D" stroke-width="0.5" stroke-dasharray="2 4"/>
    <line x1="324" y1="124" x2="324" y2="160" stroke="#14532D" stroke-width="0.5" stroke-dasharray="2 4"/>
  </g>
  <g opacity="0.15">
    <circle cx="84" cy="172" r="8" stroke="#E5ECE5" stroke-width="0.5" fill="white" fill-opacity="0.3"/>
    <circle cx="324" cy="172" r="8" stroke="#E5ECE5" stroke-width="0.5" fill="white" fill-opacity="0.3"/>
  </g>
</svg>