<svg xmlns="http://www.w3.org/2000/svg" viewBox="0 0 640 280" fill="none">
  <g opacity="0.2">
    <pattern id="prob-grid" x="0" y="0" width="32" height="32" patternUnits="userSpaceOnUse">
      <circle cx="1" cy="1" r="0.4" fill="#E5ECE5"/>
    </pattern>
    <rect width="640" height="280" fill="url(#prob-grid)"/>
  </g>
  <g fill="none" stroke="#E5ECE5" stroke-width="0.5" opacity="0.3">
    <line x1="0" y1="80" x2="640" y2="80"/>
    <line x1="0" y1="160" x2="640" y2="160"/>
    <line x1="0" y1="220" x2="640" y2="220"/>
    <line x1="160" y1="0" x2="160" y2="280"/>
    <line x1="320" y1="0" x2="320" y2="280"/>
    <line x1="480" y1="0" x2="480" y2="280"/>
  </g>
  <g opacity="0.35">
    <circle cx="100" cy="100" r="32" stroke="#E5ECE5" stroke-width="0.75" fill="white" fill-opacity="0.4"/>
    <circle cx="100" cy="100" r="20" stroke="#14532D" stroke-width="0.5" fill="#F5F8F5" fill-opacity="0.3"/>
    <circle cx="100" cy="100" r="6" fill="#14532D" fill-opacity="0.3"/>
  </g>
  <g opacity="0.35">
    <circle cx="260" cy="80" r="32" stroke="#E5ECE5" stroke-width="0.75" fill="white" fill-opacity="0.4"/>
    <circle cx="260" cy="80" r="20" stroke="#14532D" stroke-width="0.5" fill="#F5F8F5" fill-opacity="0.3"/>
    <circle cx="260" cy="80" r="6" fill="#14532D" fill-opacity="0.3"/>
  </g>
  <g opacity="0.35">
    <circle cx="420" cy="100" r="32" stroke="#E5ECE5" stroke-width="0.75" fill="white" fill-opacity="0.4"/>
    <circle cx="420" cy="100" r="20" stroke="#14532D" stroke-width="0.5" fill="#F5F8F5" fill-opacity="0.3"/>
    <circle cx="420" cy="100" r="6" fill="#14532D" fill-opacity="0.3"/>
  </g>
  <g opacity="0.35">
    <circle cx="540" cy="80" r="32" stroke="#E5ECE5" stroke-width="0.75" fill="white" fill-opacity="0.4"/>
    <circle cx="540" cy="80" r="20" stroke="#14532D" stroke-width="0.5" fill="#F5F8F5" fill-opacity="0.3"/>
    <circle cx="540" cy="80" r="6" fill="#14532D" fill-opacity="0.3"/>
  </g>
  <g fill="none" stroke="#14532D" stroke-width="0.5" opacity="0.15">
    <path d="M100 100 L260 80"/>
    <path d="M420 100 L540 80"/>
  </g>
  <g fill="none" stroke="#E5ECE5" stroke-width="0.5" opacity="0.2" stroke-dasharray="3 6">
    <path d="M260 80 L420 100"/>
    <path d="M100 100 L540 80"/>
  </g>
  <g opacity="0.2">
    <path d="M160 140 L180 160 L200 140" stroke="#14532D" stroke-width="0.75" fill="none"/>
    <path d="M480 140 L500 160 L520 140" stroke="#14532D" stroke-width="0.75" fill="none"/>
  </g>
  <g opacity="0.15">
    <circle cx="160" cy="190" r="18" stroke="#E5ECE5" stroke-width="0.5" fill="white" fill-opacity="0.3"/>
    <circle cx="320" cy="200" r="18" stroke="#E5ECE5" stroke-width="0.5" fill="white" fill-opacity="0.3"/>
    <circle cx="480" cy="190" r="18" stroke="#E5ECE5" stroke-width="0.5" fill="white" fill-opacity="0.3"/>
  </g>
  <g fill="none" stroke="#E5ECE5" stroke-width="0.5" opacity="0.15" stroke-dasharray="2 5">
    <path d="M160 190 L320 200"/>
    <path d="M320 200 L480 190"/>
    <path d="M160 190 L480 190"/>
  </g>
  <g opacity="0.2">
    <line x1="100" y1="140" x2="100" y2="190" stroke="#14532D" stroke-width="0.5" stroke-dasharray="3 4"/>
    <line x1="420" y1="140" x2="420" y2="190" stroke="#14532D" stroke-width="0.5" stroke-dasharray="3 4"/>
  </g>
</svg>